<svg xmlns="http://www.w3.org/2000/svg" viewBox="0 0 100 100">
  <defs>
    <linearGradient id="bgGradient" x1="0%" y1="0%" x2="100%" y2="100%">
      <stop offset="0%" style="stop-color:#9f00ff"/>
      <stop offset="100%" style="stop-color:#00ff9f"/>
    </linearGradient>
  </defs>
  <circle cx="50" cy="50" r="48" fill="url(#bgGradient)"/>
  <path d="M50 12C32 12 20 26 20 38C20 45 24 50 28 54C24 54 18 58 18 65C18 73 24 76 30 76C28 76 24 78 24 82C24 88 30 92 50 92C70 92 76 88 76 82C76 78 72 76 70 76C76 76 82 73 82 65C82 58 76 54 72 54C76 50 80 45 80 38C80 26 68 12 50 12ZM38 30C40.76 30 43 32.24 43 35C43 37.76 40.76 40 38 40C35.24 40 33 37.76 33 35C33 32.24 35.24 30 38 30ZM62 30C64.76 30 67 32.24 67 35C67 37.76 64.76 40 62 40C59.24 40 57 37.76 57 35C57 32.24 59.24 30 62 30ZM50 48C55.52 48 60 52.48 60 58C60 63.52 55.52 68 50 68C44.48 68 40 63.52 40 58C40 52.48 44.48 48 50 48Z" fill="white"/>
  <path d="M50 6L55 16H45L50 6Z" fill="#00ff9f"/>
  <path d="M50 94L45 84H55L50 94Z" fill="#00ff9f"/>
</svg>
